<?xml version="1.0" standalone="no"?>
<!DOCTYPE svg PUBLIC "-//W3C//DTD SVG 20010904//EN"
 "http://www.w3.org/TR/2001/REC-SVG-20010904/DTD/svg10.dtd">
<svg version="1.0" xmlns="http://www.w3.org/2000/svg"
 width="165.000000pt" height="101.000000pt" viewBox="0 0 165.000000 101.000000"
 preserveAspectRatio="xMidYMid meet">

<g transform="translate(0.000000,101.000000) scale(0.100000,-0.100000)"
fill="#000000" stroke="none">
<path d="M1217 903 l-138 -95 -160 60 c-87 33 -159 59 -159 57 0 -1 22 -76 49
-166 l50 -163 -73 -71 c-40 -40 -107 -98 -149 -130 -42 -31 -77 -59 -77 -62 0
-14 293 165 345 211 l47 41 -27 93 c-16 51 -26 94 -23 97 3 3 46 -11 97 -30
l92 -36 79 56 c43 30 81 55 85 55 3 0 5 -46 4 -101 l-2 -101 82 -64 82 -63
-48 -14 c-26 -8 -72 -20 -100 -27 -52 -13 -53 -15 -73 -69 -11 -31 -28 -75
-36 -99 l-16 -43 -56 83 c-30 46 -56 84 -57 86 -2 2 -63 -19 -137 -46 -189
-71 -368 -126 -611 -187 -117 -30 -204 -54 -195 -55 9 0 102 16 205 35 192 35
423 91 593 144 l95 29 90 -139 c50 -76 92 -139 95 -139 3 0 30 71 60 158 l56
157 158 42 c87 23 160 44 162 46 3 2 -57 50 -131 107 -129 98 -135 104 -131
134 6 39 18 306 14 306 -2 -1 -65 -44 -141 -97z"/>
</g>
</svg>
